<svg width="38" height="38" viewBox="0 0 38 38" fill="none" xmlns="http://www.w3.org/2000/svg">
<circle cx="19" cy="19" r="19" fill="#CFD4ED"/>
<path d="M13.9239 12.6465H16.3692V19.7247C16.3692 20.5163 16.4629 21.0945 16.6504 21.459C16.9421 22.1049 17.5775 22.4278 18.5567 22.4278C19.5307 22.4278 20.1635 22.1049 20.4551 21.459C20.6426 21.0945 20.7364 20.5163 20.7364 19.7247V12.6465H23.1817V19.7247C23.1817 20.9486 22.9916 21.9018 22.6114 22.584C21.903 23.834 20.5515 24.459 18.5567 24.459C16.5619 24.459 15.2077 23.834 14.4942 22.584C14.114 21.9018 13.9239 20.9486 13.9239 19.7247V12.6465Z" fill="#151515"/>
</svg>
