<svg width="14" height="14" viewBox="0 0 14 14" fill="none" xmlns="http://www.w3.org/2000/svg">
<circle cx="7" cy="7" r="6.5" fill="white" stroke="#0D28A6"/>
<path d="M4.91168 5.26C4.91168 4.91333 4.96501 4.6 5.07168 4.32C5.17835 4.03333 5.33168 3.79 5.53168 3.59C5.73168 3.38333 5.97168 3.22667 6.25168 3.12C6.53835 3.00667 6.85501 2.95 7.20168 2.95C7.55501 2.95 7.86501 3.00333 8.13168 3.11C8.40501 3.21 8.63168 3.34667 8.81168 3.52C8.99835 3.69333 9.13835 3.9 9.23168 4.14C9.32501 4.38 9.37168 4.63333 9.37168 4.9C9.37168 5.21333 9.31835 5.49 9.21168 5.73C9.11168 5.97 8.97501 6.18333 8.80168 6.37C8.63501 6.55667 8.44168 6.72333 8.22168 6.87C8.00835 7.01667 7.78835 7.15667 7.56168 7.29C7.33501 7.41667 7.11168 7.54 6.89168 7.66C6.67168 7.78 6.47501 7.90667 6.30168 8.04C6.18835 8.12667 6.07835 8.22 5.97168 8.32C5.86501 8.41333 5.76835 8.51667 5.68168 8.63C5.59501 8.74333 5.52501 8.87 5.47168 9.01C5.41835 9.14333 5.38835 9.29333 5.38168 9.46H9.31168V10H4.70168C4.70835 9.66 4.74501 9.35333 4.81168 9.08C4.87835 8.80667 5.02501 8.54 5.25168 8.28C5.49835 8 5.75168 7.76 6.01168 7.56C6.27835 7.36 6.53835 7.18333 6.79168 7.03C7.04501 6.87 7.28501 6.72667 7.51168 6.6C7.73835 6.46667 7.93835 6.32333 8.11168 6.17C8.28501 6.01667 8.42168 5.84333 8.52168 5.65C8.62168 5.45667 8.67168 5.22 8.67168 4.94C8.67168 4.71333 8.63168 4.51 8.55168 4.33C8.47168 4.15 8.36168 3.99667 8.22168 3.87C8.08168 3.74333 7.91835 3.65 7.73168 3.59C7.54501 3.52333 7.34168 3.49 7.12168 3.49C6.88835 3.49 6.67501 3.54 6.48168 3.64C6.29501 3.73333 6.13168 3.86 5.99168 4.02C5.85835 4.18 5.75501 4.36667 5.68168 4.58C5.60835 4.79333 5.57835 5.02 5.59168 5.26H4.91168Z" fill="black"/>
</svg>
